<svg id="visual" viewBox="0 0 960 540" width="960" height="540" xmlns="http://www.w3.org/2000/svg" xmlns:xlink="http://www.w3.org/1999/xlink" version="1.1"><rect x="0" y="0" width="960" height="540" fill="#ffffff"></rect><path d="M0 351L22.8 352.5C45.7 354 91.3 357 137 359.2C182.7 361.3 228.3 362.7 274 358.3C319.7 354 365.3 344 411.2 346.8C457 349.7 503 365.3 548.8 376.2C594.7 387 640.3 393 686 385C731.7 377 777.3 355 823 346.8C868.7 338.7 914.3 344.3 937.2 347.2L960 350L960 541L937.2 541C914.3 541 868.7 541 823 541C777.3 541 731.7 541 686 541C640.3 541 594.7 541 548.8 541C503 541 457 541 411.2 541C365.3 541 319.7 541 274 541C228.3 541 182.7 541 137 541C91.3 541 45.7 541 22.8 541L0 541Z" fill="#0c6d78"></path><path d="M0 354L22.8 354C45.7 354 91.3 354 137 362.8C182.7 371.7 228.3 389.3 274 397.5C319.7 405.7 365.3 404.3 411.2 400.3C457 396.3 503 389.7 548.8 386C594.7 382.3 640.3 381.7 686 379C731.7 376.3 777.3 371.7 823 376.5C868.7 381.3 914.3 395.7 937.2 402.8L960 410L960 541L937.2 541C914.3 541 868.7 541 823 541C777.3 541 731.7 541 686 541C640.3 541 594.7 541 548.8 541C503 541 457 541 411.2 541C365.3 541 319.7 541 274 541C228.3 541 182.7 541 137 541C91.3 541 45.7 541 22.8 541L0 541Z" fill="#065862"></path><path d="M0 400L22.8 406.5C45.7 413 91.3 426 137 430.7C182.7 435.3 228.3 431.7 274 425.7C319.7 419.7 365.3 411.3 411.2 405.7C457 400 503 397 548.8 400.8C594.7 404.7 640.3 415.3 686 416.2C731.7 417 777.3 408 823 410.2C868.7 412.3 914.3 425.7 937.2 432.3L960 439L960 541L937.2 541C914.3 541 868.7 541 823 541C777.3 541 731.7 541 686 541C640.3 541 594.7 541 548.8 541C503 541 457 541 411.2 541C365.3 541 319.7 541 274 541C228.3 541 182.7 541 137 541C91.3 541 45.7 541 22.8 541L0 541Z" fill="#03434d"></path><path d="M0 478L22.8 477.3C45.7 476.7 91.3 475.3 137 471.5C182.7 467.7 228.3 461.3 274 462C319.7 462.7 365.3 470.3 411.2 474.8C457 479.3 503 480.7 548.8 473.5C594.7 466.3 640.3 450.7 686 450.8C731.7 451 777.3 467 823 470.3C868.7 473.7 914.3 464.3 937.2 459.7L960 455L960 541L937.2 541C914.3 541 868.7 541 823 541C777.3 541 731.7 541 686 541C640.3 541 594.7 541 548.8 541C503 541 457 541 411.2 541C365.3 541 319.7 541 274 541C228.3 541 182.7 541 137 541C91.3 541 45.7 541 22.8 541L0 541Z" fill="#012f38"></path><path d="M0 493L22.8 496.2C45.7 499.3 91.3 505.7 137 506.8C182.7 508 228.3 504 274 501.3C319.7 498.7 365.3 497.3 411.2 493.2C457 489 503 482 548.8 478.2C594.7 474.3 640.3 473.7 686 473.2C731.7 472.7 777.3 472.3 823 476.8C868.7 481.3 914.3 490.7 937.2 495.3L960 500L960 541L937.2 541C914.3 541 868.7 541 823 541C777.3 541 731.7 541 686 541C640.3 541 594.7 541 548.8 541C503 541 457 541 411.2 541C365.3 541 319.7 541 274 541C228.3 541 182.7 541 137 541C91.3 541 45.7 541 22.8 541L0 541Z" fill="#001d24"></path></svg>